<svg xmlns="http://www.w3.org/2000/svg" width="64" height="64"><path d="M40.215 46.725a18.673 18.673 0 01-3.066-1.222 4.306 4.306 0 01-1.317-1.927 1.001 1.001 0 00-.911-.588H29.05a1 1 0 00-.911.588 4.284 4.284 0 01-1.32 1.926 18.72 18.72 0 01-3.068 1.225c-1.32.412-2.068.735-2.068 2.582a3.482 3.482 0 00.437 1.656 1 1 0 00.884.532l17.962.001a1 1 0 00.884-.532 3.483 3.483 0 00.435-1.656c0-1.848-.748-2.171-2.07-2.585zm9.382-24.86a5.188 5.188 0 00-5.11-3.124c.02-.555.032-1.12.032-1.706a17.104 17.104 0 00-.421-3.746 1 1 0 00-.977-.787H20.854a1 1 0 00-.977.786 17.012 17.012 0 00-.42 3.747c0 .587.011 1.152.031 1.708a5.227 5.227 0 00-5.118 3.197 6.2 6.2 0 00.862 5.747 13.252 13.252 0 009.9 5.349c.082.099.155.194.238.293 2.054 2.45 3.378 5.08 3.54 7.034a1 1 0 00.997.917h4.16a.988.988 0 00.387-.082c.026-.01.045-.03.07-.043a.989.989 0 00.251-.18c.007-.008.018-.01.025-.018.02-.021.026-.05.044-.073a.971.971 0 00.14-.236 4112.069 4112.069 0 01.08-.284c.165-1.96 1.489-4.59 3.54-7.035.083-.098.155-.192.235-.29a13.257 13.257 0 009.929-5.352 6.218 6.218 0 00.829-5.823zm-32.701 4.712a4.27 4.27 0 01-.69-3.848 3.237 3.237 0 013.412-1.99 19.816 19.816 0 003.781 10.023 10.99 10.99 0 01-6.503-4.185zm10.006 5.467c-4.63-5.522-5.445-9.24-5.445-15.009a14.65 14.65 0 01.219-2.533h2.13c-.01.07-.014.137-.023.206-.041.29-.075.58-.1.866a16.714 16.714 0 00-.07 1.461c0 6.13.915 10.333 5.914 16.294.237.283.462.569.679.855.07.092.134.184.201.275a20.843 20.843 0 01.63.908q.182.28.35.559c.063.104.126.207.185.31.117.203.225.404.33.604.042.081.088.163.128.243.138.277.265.551.378.82.021.052.038.102.058.154.087.217.167.43.236.64.03.091.055.181.082.272.032.105.057.208.084.311h-2.095a18.103 18.103 0 00-3.87-7.236zm20.203-5.467a10.996 10.996 0 01-6.535 4.192 19.831 19.831 0 003.787-10.03 3.205 3.205 0 013.405 1.916 4.28 4.28 0 01-.658 3.922z" class="a"/></svg>