<svg xmlns="http://www.w3.org/2000/svg" width="64" height="64"><path d="M52.268 37.645a4.28 4.28 0 00-.863-2.273 1.928 1.928 0 01-.384-.775 5.181 5.181 0 01.35-.712 5.145 5.145 0 00.894-2.783c-.48-3.373-4.353-4.7-11.51-3.948a3.033 3.033 0 01-2.793-.975c-.408-.466.647-2.166 1.496-3.533l.174-.279c.139-.224.268-.427.389-.615a6.094 6.094 0 001.248-4.116c0-3.167-1.777-6.393-3.52-6.393-.84 0-1.886.39-2.09 2.245-.163 1.448-.728 5.028-2.492 7.007-.224.25-.559.568-.947.938-1.229 1.169-2.912 2.77-3.555 4.504l-.228.616c-.748 2.04-1.52 4.151-2.676 5.381a7.638 7.638 0 01-2.375 1.795.284.284 0 00-.176.262v16.172a.283.283 0 00.283.283 24.819 24.819 0 015.69.73 34.495 34.495 0 008.249 1.58q.165 0 .325-.005a47.612 47.612 0 008.285-1.243c2.666-.666 3.79-2.308 3.67-3.04a9.893 9.893 0 00-.115-.538 5.48 5.48 0 01-.229-1.616 5.297 5.297 0 01.522-.75 8.984 8.984 0 001.106-1.703 3.632 3.632 0 00-.306-2.638 5.83 5.83 0 01-.16-.44 3.047 3.047 0 01.598-.916 4.1 4.1 0 001.14-2.222zm-33.685-4.999h-5.131a2.095 2.095 0 00-2.03 2.15v14.395a2.095 2.095 0 002.03 2.15h5.13a2.095 2.095 0 002.03-2.15V34.797a2.095 2.095 0 00-2.03-2.15zM13.482 49.35a.2.2 0 01-.06-.158V34.797c0-.093.044-.148.03-.15h2.26c-.003.05-.005.1-.005.15V49.19c0 .052.002.103.005.154z" class="a"/></svg>