<svg xmlns="http://www.w3.org/2000/svg" width="64" height="64" viewBox="0 0 64 64"><defs/><path d="M26.682 41.43a3.086 3.086 0 1 0 6.171 0 3.086 3.086 0 1 0-6.171 0zm4.512 3.573H28.34a2.572 2.572 0 0 0-2.57 2.568v1.301a1.27 1.27 0 0 0 1.269 1.269h5.455a1.27 1.27 0 0 0 1.268-1.269v-1.3a2.572 2.572 0 0 0-2.57-2.57zm14.995-3.573a3.085 3.085 0 1 0 6.171 0 3.085 3.085 0 1 0-6.171 0zm4.511 3.573h-2.852a2.571 2.571 0 0 0-2.569 2.568v1.301a1.27 1.27 0 0 0 1.268 1.269H52a1.27 1.27 0 0 0 1.269-1.269v-1.3a2.572 2.572 0 0 0-2.57-2.57zM36.435 41.43a3.085 3.085 0 1 0 6.171 0 3.085 3.085 0 1 0-6.171 0zm4.512 3.573h-2.853a2.571 2.571 0 0 0-2.569 2.568v1.301a1.27 1.27 0 0 0 1.269 1.269h5.454a1.27 1.27 0 0 0 1.268-1.269v-1.3a2.571 2.571 0 0 0-2.569-2.57zm9.173-31.186h-21.2a4.67 4.67 0 0 0-4.664 4.664v3.439a.283.283 0 0 0 .087.204.322.322 0 0 0 .206.08c2.033-.065 3.994-.084 5.645-.094l.039-.284.066.284a4.675 4.675 0 0 1 3.008.991.28.28 0 0 0 .276.054.283.283 0 0 0 .187-.21 4.017 4.017 0 0 1 1.096-2.02 2.346 2.346 0 0 1 .2-.177 4.02 4.02 0 0 1 5.503.178 2.681 2.681 0 0 1 .179.2 4.026 4.026 0 0 1 1.003 2.652 4.115 4.115 0 0 1-.04.574.284.284 0 0 0 .32.32 4.11 4.11 0 0 1 .795-.034.28.28 0 0 0 .24-.107l.949-1.193a.282.282 0 0 0 .05-.256 4.03 4.03 0 1 1 3.647 2.906.311.311 0 0 0-.237.107l-.95 1.193a.281.281 0 0 0-.05.256 4.006 4.006 0 0 1-1.019 3.974 2.251 2.251 0 0 1-.191.171 4.011 4.011 0 0 1-5.508-.177.241.241 0 0 0-.046-.037 4.004 4.004 0 0 1-1.14-2.81 3.95 3.95 0 0 1 .04-.572.285.285 0 0 0-.079-.241.276.276 0 0 0-.241-.081 4.057 4.057 0 0 1-.433.038.282.282 0 0 0-.272.306c.008.104.013.208.013.314a4.027 4.027 0 0 1-6.882 2.847.272.272 0 0 0-.044-.035 4.07 4.07 0 0 1-.904-1.443.281.281 0 0 0-.336-.178c-.941.237-1.813.454-2.497.615-.757.18-1.58.366-2.456.554a.284.284 0 0 0-.224.277v1.081a4.67 4.67 0 0 0 4.665 4.665h21.2a4.67 4.67 0 0 0 4.663-4.665V18.481a4.67 4.67 0 0 0-4.664-4.664zM15.387 23.37a4.667 4.667 0 1 0-4.668-4.667 4.64 4.64 0 0 0 4.668 4.667zm16.28 3.735a2.32 2.32 0 1 0 3.77-.03l1.152-1.287a2.259 2.259 0 0 0 2.371-.062l1.695 1.696a2.32 2.32 0 1 0 3.742-.209l2.528-3.178a2.288 2.288 0 0 0 1.01.242 2.317 2.317 0 1 0-2.317-2.317 2.294 2.294 0 0 0 .525 1.45l-2.527 3.179a2.26 2.26 0 0 0-2.254.126l-1.695-1.696a2.297 2.297 0 0 0 .368-1.242 2.317 2.317 0 0 0-4.635 0 2.297 2.297 0 0 0 .44 1.348l-1.152 1.289a2.236 2.236 0 0 0-2.268.011 1.549 1.549 0 0 0 .286-1.072c-.052-.45-.393-1.502-2.468-1.54-3.51.022-11.666.072-16.552 1.166l-.027.006h-.001l-.006.001-.097.023-.06.014h-.003c-1.946.453-4.41 1.285-4.439 3.257-.629 6.255.518 9.603.576 9.769a7.028 7.028 0 0 0 1.134 1.94c.86 7.245 1.462 8.618 1.661 9.074.454 1.035 1.998 1.415 3.423 1.415.068 0 .134-.005.201-.006.02 0 .038.011.059.011h.037a6.57 6.57 0 0 0 .463-.033c.026-.003.048-.015.074-.02q.26-.028.498-.072c.02-.002.037.002.055-.002l.17-.036a1.045 1.045 0 0 0 .119-.037l.055-.015a.886.886 0 0 0 .104-.023c.012-.004.022-.01.034-.013.015-.005.032-.008.047-.012.015-.005.026-.016.04-.021a2.517 2.517 0 0 0 1.517-1.134c.432-.816.781-2.43 1.593-9.373.006-.046.613-4.585.79-9.997a5.241 5.241 0 0 1 1.236-.333l.381-.075c2.367-.489 5.209-1.193 7.171-1.696a4.163 4.163 0 0 0 1.176-.486zM12.712 39.443a1.017 1.017 0 0 0-.282-.587 4.868 4.868 0 0 1-.923-1.494c-.01-.03-1.049-3.136-.46-8.928a.972.972 0 0 0 .006-.113c-.002-.134.303-.523 1.482-.944l-.005.028c-.02.105-.038.222-.058.33-.054.29-.106.584-.154.895-.023.155-.043.317-.064.476-.04.284-.076.568-.107.865-.02.18-.033.363-.049.548a25.193 25.193 0 0 0-.08 1.473 22.16 22.16 0 0 0 .014 1.513c.014.314.04.628.07.943.02.197.035.391.06.587.044.344.107.685.173 1.026.032.166.056.333.094.498a13.59 13.59 0 0 0 .424 1.49 7.028 7.028 0 0 0 1.134 1.94c.042.353.083.69.124 1.016l.048.376.073.568.054.404.06.447.06.425.052.358a88.978 88.978 0 0 0 .166 1.082q.023.149.047.291a67.293 67.293 0 0 0 .098.583l.055.308.04.22.053.28.037.187.052.257c.01.054.021.103.032.155l.052.239.014.065q.066.293.126.528l.008.034.04.153.031.115.032.113.033.114.029.094.02.069a3.004 3.004 0 0 1-1.199-.284c-.321-.794-.836-2.967-1.512-8.743z"/></svg>
