<svg xmlns="http://www.w3.org/2000/svg" width="64" height="64" viewBox="0 0 64 64"><defs/><path d="M31.418 42.778a.74.74 0 0 0 1.166-.002A97.688 97.688 0 0 0 37.62 35.5c3.388-5.426 5.105-9.564 5.105-12.3a10.726 10.726 0 1 0-21.452 0c0 2.79 1.718 6.945 5.106 12.35a93.96 93.96 0 0 0 5.038 7.23zM32 18.447a4.752 4.752 0 1 1-4.752 4.752A4.757 4.757 0 0 1 32 18.447zm23.238 27.41l-4.665-11.44c-.823-2.019-2.202-5.397-5.7-5.397H43.39l-.26.61a52.652 52.652 0 0 1-3.812 7.107 96.542 96.542 0 0 1-2.425 3.67 93.539 93.539 0 0 1-2.63 3.623 2.887 2.887 0 0 1-1 .814l-.149.075a2.84 2.84 0 0 1-2.19.021l-.177-.086a2.88 2.88 0 0 1-.934-.72l-.064-.081c-.012-.016-1.196-1.53-2.643-3.607a91.246 91.246 0 0 1-2.41-3.662c-1.168-1.86-2.152-3.593-2.926-5.15v-.002a34.602 34.602 0 0 1-.922-2l-.258-.613h-1.462c-3.5 0-4.878 3.38-5.7 5.398l-4.666 11.44a3.586 3.586 0 0 0 .425 3.437 6.66 6.66 0 0 0 5.277 2.717h35.072a6.662 6.662 0 0 0 5.277-2.716 3.592 3.592 0 0 0 .425-3.439zM14.95 50.01h-.485a4.69 4.69 0 0 1-3.617-1.832 1.607 1.607 0 0 1-.233-1.567l4.665-11.44c1.098-2.693 2.037-4.152 3.85-4.152h.14q.219.492.465 1.002c-.123.212-.227.438-.338.658-.07.137-.144.267-.209.406-.208.443-.402.89-.582 1.331l-4.665 11.44a3.586 3.586 0 0 0 .425 3.437 5.171 5.171 0 0 0 .534.655c.018.02.031.042.05.062z" class="a"/></svg>
