<svg xmlns="http://www.w3.org/2000/svg" width="64" height="64" viewBox="0 0 64 64"><defs/><path d="M47.396 32.548a556.158 556.158 0 0 0-.124-.226.964.964 0 0 0-.178-.211c-.024-.021-.034-.052-.06-.07-.018-.014-.041-.014-.06-.026a.98.98 0 0 0-.276-.116.965.965 0 0 0-.121-.037.99.99 0 0 0-.433.03l-4.025 1.253-.006.002-7.953 2.478a8.994 8.994 0 0 1-5.294.026l-12.073-3.76a1 1 0 0 0-1.297.955V44.02a1.004 1.004 0 0 0 .245.656c.135.156 3.464 3.823 15.727 3.823a37.768 37.768 0 0 0 11.226-1.426c.009-.002.018 0 .027-.004l.068-.024c.026-.008.054-.015.08-.024.008-.002.013-.009.021-.012a10.011 10.011 0 0 0 4.305-2.333 1 1 0 0 0 .246-.657V32.846a1.142 1.142 0 0 1-.045-.298zM45.441 43.42l-.026.017h-.001a.233.233 0 0 0-.084.132.27.27 0 0 0-.165.023l-.201.116a.26.26 0 0 0-.036.036.255.255 0 0 0-.037.004q-.185.103-.4.21a.252.252 0 0 1-.378.179q-.196.09-.413.18a.274.274 0 0 0-.138.14.278.278 0 0 0-.145-.002v-9.62l2.024-.63v9.215zm9.147-6.974v-7.08a.284.284 0 0 0-.378-.268l-1.662.59a.283.283 0 0 0-.189.267l.002 6.483c-1.18 2.065-1.193 2.32-1.256 3.671l-.004.09a1.532 1.532 0 0 0 1.585 1.584h1.574a1.516 1.516 0 0 0 1.585-1.585 5.061 5.061 0 0 0-.836-2.931 56.598 56.598 0 0 1-.421-.82zm.513-13.292L34.583 16.93a12.383 12.383 0 0 0-6.229 0L7.836 23.153l-.003.002c-1.546.47-1.871 1.245-1.871 1.812 0 .568.325 1.344 1.874 1.815l20.518 6.226a12.398 12.398 0 0 0 6.228 0l4.396-1.334.012-.004 16.11-4.888c1.55-.47 1.875-1.246 1.875-1.814s-.325-1.344-1.874-1.815zm-26.166 7.94L8.745 24.97l4.066-1.234 22.47 6.972-1.279.388H34a10.402 10.402 0 0 1-5.066 0z" class="a"/></svg>
