<svg xmlns="http://www.w3.org/2000/svg" width="64" height="64" viewBox="0 0 64 64"><defs/><path d="M43.055 37.252l2.465-15.424a1.783 1.783 0 0 0-2.68-1.873l-8.05 4.934h-9.345a1.5 1.5 0 0 0-1.5 1.5v.567a1.5 1.5 0 0 0 1.5 1.5h9.847a1.703 1.703 0 0 0 .945-.271L41.4 25.02l-1.625 10.167h-12.44a1.773 1.773 0 0 0-1.726 1.335L21.8 50.735a1.5 1.5 0 0 0 1.06 1.838l.547.147a1.53 1.53 0 0 0 .39.05 1.5 1.5 0 0 0 1.447-1.11l3.459-12.906 12.591-.001a1.777 1.777 0 0 0 1.76-1.501zm-1.968-17.925a4.557 4.557 0 0 0 2.155-.543l.006-.004a4.547 4.547 0 0 0 0-8.003l-.006-.004a4.548 4.548 0 1 0-2.155 8.554zm-.43-7.06c-.019.026-.03.056-.048.084a4.524 4.524 0 0 0-.185.328c-.04.076-.08.15-.116.228-.054.12-.098.244-.142.369-.027.076-.057.15-.08.227-.04.139-.068.281-.096.425-.013.067-.032.133-.042.202a4.397 4.397 0 0 0 0 1.297c.01.07.03.135.042.203.028.143.055.286.096.424.023.078.053.152.08.228.044.125.088.248.142.368.035.078.077.152.116.228.058.112.118.222.185.329.017.027.03.057.047.083a2.549 2.549 0 0 1 0-5.023zM33.25 31.718a1.6 1.6 0 0 0-1.595-1.595H17.101a2.107 2.107 0 0 0-2.1 2.101v17.748a1.261 1.261 0 0 0 1.256 1.257h.844a1.313 1.313 0 0 0 1.257-1.257l1.844-16.66h11.454a1.6 1.6 0 0 0 1.595-1.594zm14.873-4.684a1.6 1.6 0 0 0-1.799 1.36l-1.77 12.77H31.612a1.595 1.595 0 1 0 0 3.189h.033v6.787a.862.862 0 0 0 .86.86h.997a.863.863 0 0 0 .86-.86v-6.787h8.766v6.787a.862.862 0 0 0 .859.86h.998a.863.863 0 0 0 .86-.86v-6.787h.032a1.637 1.637 0 0 0 1.65-1.39l1.959-14.13a1.599 1.599 0 0 0-1.361-1.8z" class="a"/></svg>
